<svg width="1080" height="1080" viewBox="0 0 1080 1080" fill="none" xmlns="http://www.w3.org/2000/svg">
<path d="M840.279 552.3C822.779 552.3 807.779 538.9 806.279 521.1C804.979 505.9 802.379 490.7 798.579 476C794.879 461.8 789.779 447.4 783.379 433.2C777.179 419.4 769.679 406 761.179 393.4C752.779 381 743.079 369.1 732.479 358C721.979 347 710.479 336.9 698.279 327.8C686.579 319 673.479 311 659.579 303.9C646.079 297.1 631.879 291.3 617.279 286.8C603.379 282.5 588.379 279.3 572.879 277.3C554.179 274.9 540.979 257.7 543.379 239C545.779 220.3 562.979 207.1 581.679 209.5C600.979 212 619.779 216.1 637.479 221.5C655.679 227.2 673.479 234.4 690.379 243C707.879 251.9 724.179 262 739.079 273C754.279 284.3 768.679 297 781.779 310.7C795.079 324.5 807.079 339.4 817.679 355L817.779 355.1C828.379 370.9 837.779 387.6 845.579 404.9C853.579 422.7 860.079 440.8 864.779 458.8C869.479 477.2 872.679 496.1 874.379 515C875.979 533.8 862.079 550.4 843.279 552C842.279 552.3 841.279 552.3 840.279 552.3Z" fill="#F5B6CD"/>
<path d="M767.176 422.701C759.576 422.701 752.076 418.901 747.676 412.001C729.776 383.701 705.776 358.801 678.176 339.801C664.176 330.201 649.376 322.001 634.076 315.601C618.576 309.101 602.476 304.201 585.976 301.001C553.076 294.601 518.376 294.801 485.776 301.801C453.176 308.801 421.576 322.701 394.276 342.201C383.876 349.601 369.576 347.201 362.176 336.801C354.776 326.401 357.176 312.101 367.576 304.701C399.976 281.601 437.476 265.001 476.176 256.801C514.776 248.501 555.876 248.201 594.876 255.801C614.376 259.601 633.576 265.501 651.976 273.201C670.076 280.801 687.776 290.501 704.376 301.901C737.076 324.401 765.476 354.001 786.676 387.401C793.476 398.101 790.276 412.401 779.476 419.201C775.676 421.601 771.376 422.701 767.176 422.701Z" fill="#FF7F41"/>
<path d="M264.078 442.8C259.878 442.8 255.578 441.9 251.478 439.9C236.878 432.9 230.678 415.4 237.678 400.8C248.178 378.9 261.278 357.9 276.678 338.3L279.178 335.1C280.278 333.7 281.478 332.2 282.878 330.6L291.878 320.2L303.078 308.5L314.778 297.4L321.378 291.7C321.878 291.2 322.478 290.8 322.978 290.3C324.578 288.9 326.478 287.3 328.678 285.6C367.578 254.3 412.978 231.9 459.978 220.8C475.778 217.1 491.478 226.8 495.178 242.6C498.878 258.4 489.178 274.1 473.378 277.8C434.678 286.9 397.278 305.4 365.278 331.3L364.478 331.9C363.778 332.4 362.678 333.4 361.578 334.3C360.878 334.9 360.178 335.5 359.478 336.1L353.678 341.1L343.978 350.3L334.978 360L326.878 369.4C326.478 369.8 325.878 370.7 325.478 371.1L322.778 374.5C309.978 390.7 299.178 408.1 290.578 426C285.478 436.6 275.078 442.8 264.078 442.8Z" fill="#00C389"/>
<path d="M680.778 921H398.278C370.278 921 347.578 898.3 347.578 870.3V208.2C347.578 180.2 370.278 157.5 398.278 157.5H680.778C708.778 157.5 731.478 180.2 731.478 208.2V870.3C731.478 898.3 708.778 921 680.778 921Z" fill="#FDDA24"/>
<path d="M680.778 921.4H398.178C369.978 921.4 347.078 898.5 347.078 870.3V208.1C347.078 179.9 369.978 157 398.178 157H680.678C708.878 157 731.778 179.9 731.778 208.1V870.2C731.878 898.4 708.978 921.4 680.778 921.4ZM398.178 157.8C370.378 157.8 347.778 180.4 347.778 208.2V870.3C347.778 898.1 370.378 920.7 398.178 920.7H680.678C708.478 920.7 731.078 898.1 731.078 870.3V208.2C731.078 180.4 708.478 157.8 680.678 157.8H398.178Z" fill="#FDDA24"/>
<path d="M704.88 233.8H374.18V823.1H704.88V233.8Z" fill="white"/>
<path d="M474.276 466.2C475.276 470.2 479.376 472.2 483.476 470.9C517.176 460.6 550.876 453.6 585.676 448.5C589.676 448 591.876 443.9 590.376 439.8C587.276 431.2 585.676 426.8 582.576 418.2C581.276 414.6 577.576 412.2 573.876 412.6C539.876 416.8 506.976 422.9 474.076 432.4C469.776 433.7 467.176 438.5 468.276 442.7C470.576 452 471.876 456.7 474.276 466.2Z" fill="#2C2A29"/>
<path d="M610.678 470.9C609.378 467 605.778 464.5 602.278 464.9C548.978 471.6 497.178 484.7 447.978 506.3C444.378 508 442.278 512.5 442.978 516.4C444.878 526.5 445.878 531.5 447.878 541.6C448.678 545.9 452.778 547.9 456.778 546C506.678 523.3 559.478 508.9 613.678 500.3C617.078 499.7 618.878 495.8 617.578 491.8C614.878 483.4 613.478 479.2 610.678 470.9Z" fill="#2C2A29"/>
<path d="M610.477 527.2C609.177 523.1 605.277 520.4 601.677 521.1C568.377 528.3 535.877 536.9 503.777 547.8C499.677 549.3 497.377 553.6 498.477 557.5C501.077 566.9 502.277 571.5 504.877 580.9C506.077 585.3 511.077 587.6 515.677 585.8C547.877 574.4 580.377 564.4 613.577 556.4C616.777 555.6 618.377 551.9 617.177 548.1C614.577 539.8 613.177 535.6 610.477 527.2Z" fill="#2C2A29"/>
<path d="M538.48 841.1C526.68 841.1 514.78 840.4 503.18 839.1H502.88L496.68 838.3C494.68 838.1 492.18 837.8 489.58 837.2C488.18 836.9 486.88 836.7 485.48 836.5C482.98 836.1 480.48 835.6 477.78 835.1L476.88 834.9L464.68 832.1C461.98 831.4 459.38 830.7 456.88 829.9C455.58 829.5 454.18 829.1 452.88 828.8L452.28 828.6C418.98 818.5 387.88 802.8 359.98 781.9C332.18 761 308.38 735.6 289.28 706.3C279.68 691.6 271.48 676.2 264.78 660.5C258.08 644.5 252.68 627.9 248.78 611C245.58 597.1 254.28 583.2 268.18 580C282.08 576.8 295.98 585.5 299.18 599.4C302.38 613.4 306.78 627.1 312.38 640.2C317.88 653.1 324.68 665.8 332.58 678C348.38 702.2 368.08 723.3 390.98 740.5C413.98 757.7 439.58 770.7 466.98 779C468.38 779.4 469.78 779.8 471.18 780.2C473.38 780.8 475.38 781.4 477.38 781.9L488.18 784.4C490.28 784.8 492.38 785.2 494.48 785.5C496.08 785.8 497.58 786 499.18 786.3L499.58 786.4C500.38 786.6 501.68 786.7 503.08 786.9L509.38 787.7C523.48 789.3 537.98 789.8 552.38 789C566.68 788.3 578.78 799.2 579.58 813.4C580.38 827.6 569.38 839.8 555.18 840.6C549.48 840.9 543.98 841.1 538.48 841.1Z" fill="#F5B6CD"/>
<path d="M317.978 782.8C310.178 782.8 302.378 779.7 296.478 773.6C265.278 740.7 240.578 701 225.078 658.7C209.678 616.5 202.878 570.2 205.578 524.9C206.478 508.6 220.578 496.1 236.878 497.1C253.178 498 265.678 512 264.678 528.4C262.478 565.7 268.078 603.8 280.778 638.4C293.478 673.1 313.778 705.8 339.478 732.8C350.778 744.7 350.278 763.4 338.378 774.7C332.678 780.1 325.278 782.8 317.978 782.8Z" fill="#FF7F41"/>
<path d="M537.678 872.1C531.678 872.1 525.778 872 519.778 871.7H519.578C484.178 869.6 450.178 862.2 418.578 849.7C406.078 844.7 399.878 830.5 404.878 818C409.878 805.5 424.078 799.3 436.578 804.3C463.278 814.9 492.178 821.2 522.378 823C537.178 823.7 552.078 823.4 566.578 822C581.278 820.4 595.978 817.7 610.078 814C667.178 798.8 718.778 765.2 755.478 719.3C763.878 708.8 779.278 707 789.778 715.5C800.278 723.9 801.978 739.3 793.578 749.8C750.378 803.8 689.678 843.4 622.478 861.3C605.878 865.6 588.778 868.8 571.578 870.6H571.278C560.178 871.6 548.978 872.1 537.678 872.1Z" fill="#59CBE8"/>
<path d="M693.379 796C684.079 796 674.879 791.6 669.079 783.4C659.679 770 662.879 751.6 676.279 742.2C690.679 732.1 704.079 720.4 715.979 707.4C727.579 694.8 738.079 680.5 747.079 664.9C755.879 649.7 763.079 633.5 768.279 616.8C773.479 600.4 776.879 583.1 778.379 565.2C779.779 548.9 794.079 536.8 810.379 538.2C826.679 539.6 838.779 553.9 837.379 570.2C835.479 592.4 831.179 614.1 824.779 634.6C818.179 655.4 809.279 675.6 798.279 694.5C787.079 713.9 773.979 731.7 759.479 747.4C744.679 763.5 728.079 778 710.279 790.5C705.179 794.2 699.179 796 693.379 796Z" fill="#9063CD"/>
<path d="M618.777 201.9C623.472 201.9 627.277 198.095 627.277 193.4C627.277 188.706 623.472 184.9 618.777 184.9C614.083 184.9 610.277 188.706 610.277 193.4C610.277 198.095 614.083 201.9 618.777 201.9Z" fill="white"/>
<path d="M467.977 198.9C471.014 198.9 473.477 196.438 473.477 193.4C473.477 190.363 471.014 187.9 467.977 187.9C464.939 187.9 462.477 190.363 462.477 193.4C462.477 196.438 464.939 198.9 467.977 198.9Z" fill="#00C389"/>
</svg>
