<svg width="24" height="24" viewBox="0 0 24 24" fill="none" xmlns="http://www.w3.org/2000/svg">
<path fill-rule="evenodd" clip-rule="evenodd" d="M3 6.707V17.9155L8.68015 12.3871L3 6.707ZM4 19C3.80709 19 3.62668 18.945 3.47367 18.8498L9.3868 13.0938L12 15.707L14.3753 13.3317L20.1783 18.9841C20.1204 18.9945 20.0608 19 20 19H4ZM20.9429 18.3329C20.9799 18.2287 21 18.1167 21 18V6.707L15.0824 12.6246L20.9429 18.3329ZM3.70791 6L12 14.293L20.2921 6H3.70791ZM4 20H20C21.103 20 22 19.103 22 18V5H2V18C2 19.103 2.897 20 4 20Z" fill="#2C2A29"/>
</svg>
