<svg width="24" height="24" viewBox="0 0 24 24" fill="none" xmlns="http://www.w3.org/2000/svg">
<path fill-rule="evenodd" clip-rule="evenodd" d="M4.177 6C3.528 6 3 6.567 3 7.265V7.9707H21V7.265C21 6.567 20.472 6 19.824 6H4.177ZM3 10.8817V8.9707H21V10.8817H3ZM22 10.8817V8.9707H22.0003V7.9707H22V7.265C22 6.016 21.024 5 19.824 5H4.177C2.977 5 2 6.016 2 7.265V16.677C2 17.925 2.977 18.941 4.177 18.941H19.824C21.024 18.941 22 17.925 22 16.677V11.8817H22.0003V10.8817H22ZM3 11.8817H21V16.677C21 17.374 20.472 17.941 19.824 17.941H4.177C3.528 17.941 3 17.374 3 16.677V11.8817ZM10.0003 16.9707H4.0003V15.9707H10.0003V16.9707Z" fill="#2C2A29"/>
</svg>
